<?xml version="1.0"?>
<svg xmlns:rdf="http://www.w3.org/1999/02/22-rdf-syntax-ns#" xmlns="http://www.w3.org/2000/svg" xmlns:cc="http://creativecommons.org/ns#" xmlns:dc="http://purl.org/dc/elements/1.1/" xmlns:svg="http://www.w3.org/2000/svg" id="svg2" viewBox="0 0 213.78 177.64" version="1.1">
  <path id="path3038" d="m103.02 154.2c-0.32878-0.53198-1.9303-0.70073-3.559-0.375-1.8778 0.37556-2.9612 0.18064-2.9612-0.53275 0-0.61875-1.1164-1.125-2.481-1.125-1.807 0-2.65-0.67367-3.1034-2.4799-0.51045-2.0338-0.95052-2.3043-2.4466-1.5036-2.8106 1.5042-4.9691 0.13911-4.9691-3.1426 0-2.5805-0.27532-2.843-2.4178-2.3052-2.7811 0.69801-4.9054-2.1325-4.3884-5.8471 0.169-1.21-0.143-2.21-0.693-2.22-2.1699-0.057-3.5-1.7457-3.5-4.4435 0-2.0814-0.46288-2.7931-1.75-2.691-1.1776 0.0935-1.847-0.69351-2.0466-2.4061-0.24471-2.0995 1.1084-3.7446 7.7295-9.3977 4.4144-3.769 8.2929-7.6933 8.619-8.7207 0.32609-1.0274 0.0498-3.5138-0.61411-5.5253l-1.207-3.6572-2.7219 3.335c-3.3546 4.1103-5.9058 3.6689-5.2344-0.90565 0.53584-3.6509-1.3712-6.4222-3.9546-5.7466-2.0908 0.54675-2.3634-0.39328-0.61985-2.1368 0.93333-0.93334 0.8037-1.2-0.58334-1.2-0.98083 0-1.6012-0.54644-1.3786-1.2143 0.44324-1.3297-0.49104-1.8926-16.971-10.225-6.1784-3.1236-11.578-6.226-12-6.8942-0.42164-0.6682-2.0877-2.0567-3.7023-3.0856-7.189-4.589-13.565-12.6-13.565-17.05 0-2.3168 1.5372-1.8509 2.762 0.83707 1.9435 4.2654 7.6492 9.9174 11.918 11.806 2.2991 1.017 8.8241 2.5387 14.5 3.3816 12.024 1.7855 20.404 3.8167 24.447 5.9251 5.1342 2.6776 7.8208 1.578 8.5254-3.4894 0.25418-1.8282-0.25701-2.7652-1.9024-3.4871-1.2375-0.54292-2.25-1.3093-2.25-1.703 0-0.77806 6.5703-2.809 9-2.7821 2.2429 0.0249 5.5735 3.0535 7.4399 6.7652 3.454 6.8688 7.4464 6.2857 29.06-4.2446 19.899-9.6948 48.183-29.294 55.608-38.533 2.9283-3.6438 6.2367-6.4383 5.0634-3.3807-0.27552 0.71799-0.16789 3.394 0.89824 3.6728 1.1 0.28765 2.7312-1.4314 2.7312-0.28617 0 1.1057-0.23789 5.0084 0.44961 5.2489 0.88992 0.31128 0.67388 1.0865-0.75 2.6911-1.1 1.2396 0.13769 2.2809 0.30477 3.2922 0.2001 1.2111-2.7395 3.1781-4.751 4.2183-1.7372 0.89835-3.0538 2.3776-3.0538 3.4311 0 1.0185-0.675 2.4121-1.5 3.0968-0.825 0.68469-0.16601 1.6076-0.16601 2.3771 0 0.76944-2.5521 2.2186-4.0409 2.8944-1.4888 0.67571-4.5263 3.1818-6.75 5.5692-8.2622 8.8702-14.747 15.159-15.632 15.159-0.50121 0 0.0225 0.7168 0.0225 1.2668s-1.8338 0.7332-2.9338 0.7332-2 0.40276-2 0.89504c0 0.49227-1.1172 1.9548-2.4827 3.25s-2.4905 2.9656-2.5 3.712c-0.01 0.75716-0.64374 1.1166-1.4345 0.81314-0.77948-0.29912-1.6833 0.14943-2.0084 0.99676-0.32515 0.84734-1.2394 1.2919-2.0316 0.98789-0.82373-0.31609-1.6824 0.17463-2.0058 1.1462-0.51781 1.556-8.3746 7.8123-9.537 7.5943-0.275-0.0516-0.99381 0.58153-1.5974 1.4069-0.85513 1.1695-1.269 1.223-1.875 0.24247-0.61641-0.99738-0.95028-0.9789-1.6104 0.0891-0.6849 1.1082-1.3363 1.0499-3.67-0.32864l-2.8372-1.676-3.474 4.6854c-1.9107 2.577-3.3256 5.4435-3.1443 6.3702 0.49487 2.5289 8.4512 7.2019 20.208 11.869 5.775 2.2925 11.124 4.7583 11.887 5.4796 2.1664 2.0489 0.59326 4.4666-2.9062 4.4666h-3.0823l2.5697 3.3691c3.0836 4.0428 2.5106 6.6309-1.468 6.6309-1.554 0-3.0406 0.66334-3.3616 1.5-0.31658 0.825-1.4897 1.5-2.607 1.5-1.1575 0-2.0314 0.65878-2.0314 1.5314 0 2.1064-2.4204 2.8492-4.9219 1.5104-1.8533-0.99185-2.0781-0.83448-2.0781 1.4544 0 3.1649-2.595 4.3373-4.775 2.1574-1.4932-1.4932-1.7218-1.3774-2.9231 1.4797-1.0614 2.5244-1.7578 3.0127-3.7525 2.6314-1.4959-0.28596-2.6511 0.0579-2.9679 0.88356-0.59935 1.5619-3.1824 1.8064-4.0612 0.3845z"/>
  <metadata>
    <rdf:RDF>
      <cc:Work>
        <dc:format>image/svg+xml</dc:format>
        <dc:type rdf:resource="http://purl.org/dc/dcmitype/StillImage"/>
        <cc:license rdf:resource="http://creativecommons.org/licenses/publicdomain/"/>
        <dc:publisher>
          <cc:Agent rdf:about="http://openclipart.org/">
            <dc:title>Openclipart</dc:title>
          </cc:Agent>
        </dc:publisher>
        <dc:title>Eagle silhouette 5</dc:title>
        <dc:date>2013-04-25T00:16:32</dc:date>
        <dc:description>Eagle, flying, silhouette</dc:description>
        <dc:source>http://openclipart.org/detail/177437/eagle-silhouette-5-by-serioustux-177437</dc:source>
        <dc:creator>
          <cc:Agent>
            <dc:title>SeriousTux</dc:title>
          </cc:Agent>
        </dc:creator>
        <dc:subject>
          <rdf:Bag>
            <rdf:li>Eagle</rdf:li>
            <rdf:li>flying</rdf:li>
            <rdf:li>silhouette</rdf:li>
          </rdf:Bag>
        </dc:subject>
      </cc:Work>
      <cc:License rdf:about="http://creativecommons.org/licenses/publicdomain/">
        <cc:permits rdf:resource="http://creativecommons.org/ns#Reproduction"/>
        <cc:permits rdf:resource="http://creativecommons.org/ns#Distribution"/>
        <cc:permits rdf:resource="http://creativecommons.org/ns#DerivativeWorks"/>
      </cc:License>
    </rdf:RDF>
  </metadata>
</svg>
